<svg id="carrot_logo" viewBox="0 0 200 200"
     class="svg-inline--fa fa-w-16"
     xmlns="http://www.w3.org/2000/svg"
     xmlns:xlink="http://www.w3.org/1999/xlink" xml:space="preserve"
     xmlns:serif="http://www.serif.com/"
     role="img">
    <g transform="matrix(3.1099,0,0,2.23142,-55.4982,-11.5721)">
        <path d="M67.884,19.301C67.79,18.352 67.039,17.602 66.091,17.508C63.175,17.217 60.289,17.939 57.878,19.5C57.88,19.381 57.895,19.263 57.895,19.143C57.895,13.893 55.563,8.971 51.498,5.639C50.762,5.035 49.699,5.035 48.963,5.639C44.897,8.972 42.565,13.894 42.565,19.143C42.565,19.376 42.589,19.606 42.598,19.838C40.096,18.051 37.025,17.198 33.911,17.509C32.963,17.603 32.212,18.354 32.118,19.302C31.738,23.137 33.081,26.897 35.802,29.617C37.126,30.941 38.695,31.926 40.401,32.557C37.585,35.153 35.808,38.859 35.808,42.981C35.808,47.17 38.071,60.678 40.553,74.439C40.552,74.464 40.546,74.487 40.546,74.512C40.546,74.792 40.605,75.059 40.709,75.301C41.278,78.446 41.855,81.594 42.418,84.638C42.727,86.312 42.957,87.555 43.071,88.202C44.051,93.733 46.355,94.815 50.003,94.815C53.739,94.815 56.072,93.726 56.941,88.162C57.107,87.1 57.621,84.288 58.269,80.728C61.138,65.004 64.198,47.823 64.198,42.98C64.198,38.858 62.421,35.152 59.605,32.556C61.311,31.924 62.879,30.94 64.204,29.616C66.921,26.897 68.264,23.137 67.884,19.301ZM50.229,9.913C52.576,12.398 53.894,15.678 53.894,19.142C53.894,22.578 52.597,25.85 50.244,28.353C50.239,28.358 50.234,28.364 50.229,28.369C47.865,25.863 46.563,22.588 46.563,19.142C46.563,15.678 47.882,12.398 50.229,9.913ZM36.101,21.492C38.102,21.699 39.956,22.578 41.397,24.019C42.838,25.461 43.717,27.327 43.925,29.315C41.923,29.107 40.07,28.229 38.628,26.787C37.187,25.347 36.309,23.481 36.101,21.492ZM60.194,42.981C60.194,47.867 56.38,68.777 54.331,80.011C53.651,83.739 53.159,86.432 52.986,87.545C52.476,90.815 52,90.815 50,90.815C48.009,90.815 47.595,90.815 47.008,87.504C46.892,86.85 46.66,85.597 46.348,83.91C45.992,81.985 45.518,79.419 44.989,76.511L49.888,76.511C50.992,76.511 51.888,75.615 51.888,74.511C51.888,73.407 50.992,72.511 49.888,72.511L44.266,72.511C43.97,70.861 43.666,69.151 43.362,67.419L49.888,67.419C50.992,67.419 51.888,66.523 51.888,65.419C51.888,64.315 50.992,63.419 49.888,63.419L42.667,63.419C42.358,61.619 42.059,59.833 41.775,58.101L49.888,58.101C50.992,58.101 51.888,57.205 51.888,56.101C51.888,54.997 50.992,54.101 49.888,54.101L41.137,54.101C40.35,49.024 39.807,44.85 39.807,42.98C39.807,37.359 44.38,32.786 50.001,32.786C55.622,32.786 60.194,37.359 60.194,42.981ZM61.372,26.788C59.931,28.229 58.077,29.108 56.075,29.315C56.283,27.327 57.162,25.461 58.603,24.019C60.043,22.578 61.898,21.699 63.899,21.492C63.691,23.481 62.813,25.347 61.372,26.788Z"
              style="fill-rule:nonzero;"/>
    </g>
</svg>
