<?xml version="1.0" encoding="UTF-8" standalone="no"?>
<!DOCTYPE svg PUBLIC "-//W3C//DTD SVG 1.1//EN" "http://www.w3.org/Graphics/SVG/1.1/DTD/svg11.dtd">
<svg width="100%" height="100%" viewBox="0 0 240 130" version="1.1" xmlns="http://www.w3.org/2000/svg" xmlns:xlink="http://www.w3.org/1999/xlink" xml:space="preserve" xmlns:serif="http://www.serif.com/" style="fill-rule:evenodd;clip-rule:evenodd;stroke-linejoin:round;stroke-miterlimit:1.41421;">
    <g id="Calque-1" serif:id="Calque 1">
        <path id="rect5139" d="M22.242,0L217.758,0C230.08,0 240,9.92 240,22.242L240,100.373C240,112.695 230.08,122.615 217.758,122.615L22.242,122.615C9.92,122.615 0,112.695 0,100.373L0,22.242C0,9.92 9.92,0 22.242,0Z" style="fill:white;"/>
        <rect id="rect5141" x="166.528" y="44.198" width="44.846" height="72.428" style="fill:rgb(230,62,17);"/>
        <rect id="rect5143" x="35.929" y="44.198" width="44.846" height="72.428" style="fill:rgb(3,129,65);"/>
        <path id="rect5145" d="M26.804,44.198L38.002,44.198C47.323,44.198 54.826,51.702 54.826,61.022L54.826,99.803C54.826,109.123 47.323,116.627 38.002,116.627L26.804,116.627C17.484,116.627 9.98,109.123 9.98,99.803L9.98,61.022C9.98,51.702 17.484,44.198 26.804,44.198Z" style="fill:rgb(3,129,65);"/>
        <path id="path5635" d="M26.516,63.495L33.361,63.495L45.339,96.33L37.569,96.33L35.026,88.977L24.805,88.977L22.308,96.33L14.538,96.33L26.516,63.495ZM33.777,83.751L29.939,72.144L26.008,83.751L33.777,83.751Z" style="fill:white;fill-opacity:0.443137;fill-rule:nonzero;"/>
        <path id="rect5151" d="M206.164,44.198L217.362,44.198C226.683,44.198 234.186,51.702 234.186,61.022L234.186,99.803C234.186,109.123 226.683,116.627 217.362,116.627L206.164,116.627C196.844,116.627 189.34,109.123 189.34,99.803L189.34,61.022C189.34,51.702 196.844,44.198 206.164,44.198Z" style="fill:rgb(230,62,17);"/>
        <path id="path5631" d="M220.883,89.671L220.883,96.33L197.806,96.33L197.806,63.495L220.467,63.495L220.467,70.155L205.391,70.155L205.391,76.537L218.34,76.537L218.34,82.688L205.391,82.688L205.391,89.671L220.883,89.671Z" style="fill:white;fill-opacity:0.443137;fill-rule:nonzero;"/>
        <path id="path5608" d="M19.268,20.154L19.268,29.644L15.434,29.644L15.434,13.048L18.426,13.048L26.164,22.795L26.164,13.048L29.997,13.048L29.997,29.644L26.912,29.644L19.268,20.154Z" style="fill:rgb(125,125,125);fill-rule:nonzero;"/>
        <path id="path5610" d="M40.324,26.372C40.978,26.372 41.531,26.239 41.983,25.974C42.435,25.694 42.801,25.328 43.082,24.876C43.363,24.424 43.557,23.91 43.666,23.333C43.791,22.741 43.853,22.141 43.853,21.533L43.853,13.048L47.687,13.048L47.687,21.533C47.687,22.686 47.539,23.761 47.243,24.759C46.962,25.756 46.518,26.629 45.91,27.377C45.318,28.125 44.555,28.717 43.62,29.153C42.7,29.574 41.602,29.785 40.324,29.785C38.999,29.785 37.869,29.559 36.934,29.107C35.999,28.655 35.236,28.055 34.643,27.307C34.067,26.543 33.638,25.663 33.358,24.665C33.093,23.668 32.96,22.624 32.96,21.533L32.96,13.048L36.794,13.048L36.794,21.533C36.794,22.172 36.856,22.78 36.981,23.356C37.106,23.933 37.308,24.447 37.589,24.899C37.869,25.351 38.228,25.709 38.664,25.974C39.116,26.239 39.669,26.372 40.324,26.372Z" style="fill:rgb(125,125,125);fill-rule:nonzero;"/>
        <path id="path5612" d="M63.281,16.414L58.231,16.414L58.231,29.644L54.398,29.644L54.398,16.414L49.325,16.414L49.325,13.048L63.281,13.048L63.281,16.414Z" style="fill:rgb(125,125,125);fill-rule:nonzero;"/>
        <path id="path5614" d="M65.153,29.644L65.153,13.048L72.633,13.048C73.412,13.048 74.129,13.211 74.784,13.539C75.454,13.866 76.03,14.294 76.513,14.824C76.996,15.354 77.37,15.954 77.635,16.624C77.916,17.294 78.056,17.972 78.056,18.658C78.056,19.172 77.994,19.671 77.869,20.154C77.744,20.621 77.565,21.066 77.331,21.486C77.098,21.907 76.809,22.289 76.467,22.632C76.139,22.959 75.765,23.239 75.345,23.473L78.991,29.644L74.667,29.644L71.488,24.291L68.986,24.291L68.986,29.644L65.153,29.644ZM68.986,20.949L72.493,20.949C72.945,20.949 73.334,20.738 73.661,20.318C73.989,19.881 74.152,19.328 74.152,18.658C74.152,17.972 73.965,17.427 73.591,17.022C73.217,16.616 72.812,16.414 72.376,16.414L68.986,16.414L68.986,20.949Z" style="fill:rgb(125,125,125);fill-rule:nonzero;"/>
        <rect id="path5616" x="80.813" y="13.048" width="3.834" height="16.597" style="fill:rgb(125,125,125);fill-rule:nonzero;"/>
        <rect id="path5618" x="87.516" y="21.533" width="7.2" height="3.366" style="fill:rgb(125,125,125);fill-rule:nonzero;"/>
        <path id="path5620" d="M107.526,17.91C107.479,17.847 107.316,17.731 107.035,17.559C106.755,17.388 106.404,17.209 105.983,17.022C105.562,16.835 105.103,16.671 104.604,16.531C104.105,16.39 103.607,16.32 103.108,16.32C101.737,16.32 101.051,16.78 101.051,17.699C101.051,17.98 101.121,18.214 101.261,18.401C101.417,18.588 101.635,18.759 101.916,18.915C102.212,19.055 102.578,19.188 103.015,19.312C103.451,19.437 103.957,19.577 104.534,19.733C105.329,19.951 106.046,20.193 106.684,20.458C107.323,20.707 107.861,21.027 108.297,21.416C108.749,21.79 109.092,22.25 109.326,22.795C109.575,23.341 109.7,23.995 109.7,24.759C109.7,25.694 109.521,26.489 109.162,27.143C108.819,27.782 108.36,28.304 107.783,28.709C107.207,29.099 106.544,29.387 105.796,29.574C105.048,29.746 104.277,29.831 103.482,29.831C102.874,29.831 102.251,29.785 101.612,29.691C100.973,29.598 100.35,29.465 99.742,29.294C99.134,29.107 98.542,28.889 97.965,28.639C97.404,28.39 96.882,28.102 96.399,27.774L98.082,24.432C98.145,24.51 98.347,24.658 98.69,24.876C99.033,25.094 99.454,25.312 99.952,25.53C100.467,25.748 101.035,25.943 101.659,26.115C102.282,26.286 102.913,26.372 103.552,26.372C104.908,26.372 105.586,25.959 105.586,25.133C105.586,24.821 105.485,24.564 105.282,24.361C105.079,24.159 104.799,23.98 104.44,23.824C104.082,23.652 103.653,23.497 103.155,23.356C102.672,23.216 102.142,23.06 101.565,22.889C100.802,22.655 100.139,22.406 99.578,22.141C99.017,21.86 98.55,21.541 98.176,21.182C97.817,20.824 97.545,20.411 97.358,19.943C97.186,19.476 97.101,18.931 97.101,18.307C97.101,17.435 97.264,16.663 97.591,15.993C97.919,15.323 98.363,14.762 98.924,14.31C99.485,13.842 100.132,13.492 100.864,13.258C101.612,13.024 102.399,12.907 103.225,12.907C103.802,12.907 104.37,12.962 104.931,13.071C105.492,13.18 106.03,13.32 106.544,13.492C107.058,13.663 107.534,13.858 107.97,14.076C108.422,14.294 108.835,14.513 109.209,14.731L107.526,17.91Z" style="fill:rgb(125,125,125);fill-rule:nonzero;"/>
        <path id="path5622" d="M110.991,21.206C110.991,20.208 111.178,19.219 111.552,18.237C111.926,17.24 112.471,16.351 113.188,15.572C113.905,14.793 114.778,14.162 115.806,13.679C116.835,13.196 118.004,12.954 119.313,12.954C120.871,12.954 122.219,13.289 123.357,13.959C124.51,14.629 125.367,15.502 125.928,16.577L122.983,18.634C122.796,18.198 122.554,17.84 122.258,17.559C121.978,17.263 121.666,17.029 121.323,16.858C120.98,16.671 120.63,16.546 120.271,16.484C119.913,16.406 119.562,16.367 119.219,16.367C118.487,16.367 117.848,16.515 117.302,16.811C116.757,17.107 116.305,17.489 115.947,17.957C115.588,18.424 115.323,18.954 115.152,19.546C114.98,20.138 114.895,20.738 114.895,21.346C114.895,22.001 114.996,22.632 115.199,23.239C115.401,23.847 115.69,24.385 116.064,24.852C116.453,25.32 116.913,25.694 117.443,25.974C117.988,26.239 118.596,26.372 119.266,26.372C119.609,26.372 119.959,26.333 120.318,26.255C120.692,26.161 121.043,26.029 121.37,25.857C121.713,25.67 122.024,25.437 122.305,25.156C122.585,24.86 122.811,24.502 122.983,24.081L126.115,25.928C125.866,26.535 125.492,27.081 124.993,27.564C124.51,28.047 123.949,28.452 123.31,28.779C122.671,29.107 121.993,29.356 121.276,29.527C120.559,29.699 119.858,29.785 119.172,29.785C117.973,29.785 116.866,29.543 115.853,29.06C114.856,28.561 113.991,27.907 113.258,27.096C112.542,26.286 111.981,25.367 111.575,24.338C111.186,23.31 110.991,22.265 110.991,21.206L110.991,21.206Z" style="fill:rgb(125,125,125);fill-rule:nonzero;"/>
        <path id="path5624" d="M135.107,29.785C133.876,29.785 132.754,29.543 131.741,29.06C130.728,28.577 129.863,27.946 129.146,27.167C128.43,26.372 127.869,25.468 127.463,24.455C127.074,23.442 126.879,22.398 126.879,21.323C126.879,20.232 127.082,19.18 127.487,18.167C127.908,17.154 128.484,16.266 129.217,15.502C129.965,14.723 130.845,14.107 131.858,13.655C132.871,13.188 133.977,12.954 135.177,12.954C136.408,12.954 137.53,13.196 138.543,13.679C139.556,14.162 140.421,14.801 141.138,15.596C141.855,16.39 142.408,17.294 142.798,18.307C143.187,19.32 143.382,20.349 143.382,21.393C143.382,22.484 143.172,23.536 142.751,24.548C142.346,25.561 141.777,26.457 141.045,27.237C140.312,28 139.439,28.616 138.427,29.083C137.414,29.551 136.307,29.785 135.107,29.785ZM130.783,21.369C130.783,22.008 130.876,22.632 131.063,23.239C131.25,23.832 131.523,24.361 131.881,24.829C132.255,25.296 132.715,25.67 133.261,25.951C133.806,26.231 134.429,26.372 135.131,26.372C135.863,26.372 136.502,26.224 137.047,25.928C137.593,25.632 138.045,25.25 138.403,24.782C138.762,24.299 139.027,23.761 139.198,23.169C139.385,22.562 139.478,21.946 139.478,21.323C139.478,20.684 139.385,20.068 139.198,19.476C139.011,18.868 138.73,18.338 138.356,17.886C137.982,17.419 137.523,17.053 136.977,16.788C136.447,16.507 135.832,16.367 135.131,16.367C134.398,16.367 133.759,16.515 133.214,16.811C132.684,17.092 132.232,17.466 131.858,17.933C131.5,18.401 131.227,18.938 131.04,19.546C130.868,20.138 130.783,20.746 130.783,21.369Z" style="fill:rgb(125,125,125);fill-rule:nonzero;"/>
        <path id="path5626" d="M145.597,29.644L145.597,13.048L153.078,13.048C153.857,13.048 154.574,13.211 155.228,13.539C155.898,13.866 156.475,14.294 156.958,14.824C157.441,15.354 157.815,15.954 158.08,16.624C158.36,17.294 158.501,17.972 158.501,18.658C158.501,19.172 158.438,19.671 158.314,20.154C158.189,20.621 158.01,21.066 157.776,21.486C157.542,21.907 157.254,22.289 156.911,22.632C156.584,22.959 156.21,23.239 155.789,23.473L159.436,29.644L155.111,29.644L151.932,24.291L149.431,24.291L149.431,29.644L145.597,29.644ZM149.431,20.949L152.937,20.949C153.389,20.949 153.779,20.738 154.106,20.318C154.433,19.881 154.597,19.328 154.597,18.658C154.597,17.972 154.41,17.427 154.036,17.022C153.662,16.616 153.257,16.414 152.82,16.414L149.431,16.414L149.431,20.949Z" style="fill:rgb(125,125,125);fill-rule:nonzero;"/>
        <path id="path5628" d="M172.921,26.278L172.921,29.644L161.257,29.644L161.257,13.048L172.711,13.048L172.711,16.414L165.091,16.414L165.091,19.64L171.636,19.64L171.636,22.749L165.091,22.749L165.091,26.278L172.921,26.278Z" style="fill:rgb(125,125,125);fill-rule:nonzero;"/>
        <rect id="rect5209" x="56.341" y="44.198" width="44.846" height="72.428" style="fill:rgb(238,129,0);"/>
        <rect id="rect5211" x="144.572" y="44.198" width="44.846" height="72.428" style="fill:rgb(238,129,0);"/>
        <path id="path5552" d="M152.681,96.33L152.681,63.495L164.937,63.495C167.65,63.495 170.024,63.927 172.058,64.79C174.093,65.654 175.789,66.825 177.146,68.305C178.533,69.785 179.566,71.527 180.244,73.531C180.953,75.504 181.308,77.616 181.308,79.867C181.308,82.364 180.922,84.63 180.152,86.665C179.381,88.669 178.271,90.396 176.822,91.845C175.404,93.263 173.677,94.373 171.642,95.174C169.638,95.945 167.403,96.33 164.937,96.33L152.681,96.33ZM173.585,79.867C173.585,78.418 173.384,77.107 172.983,75.936C172.613,74.733 172.059,73.701 171.319,72.837C170.579,71.974 169.669,71.311 168.59,70.849C167.511,70.386 166.293,70.155 164.937,70.155L160.266,70.155L160.266,89.671L164.937,89.671C166.324,89.671 167.557,89.424 168.636,88.931C169.715,88.438 170.609,87.759 171.319,86.896C172.059,86.002 172.613,84.969 172.983,83.798C173.384,82.595 173.585,81.285 173.585,79.867Z" style="fill:white;fill-opacity:0.443137;fill-rule:nonzero;"/>
        <rect id="rect5217" x="97.296" y="44.198" width="47.352" height="72.428" style="fill:rgb(254,203,2);"/>
        <rect id="rect5219" x="54.749" y="44.198" width="44.846" height="72.428" style="fill:rgb(133,187,47);"/>
        <path id="path5547" d="M106.012,79.358C106.012,77.385 106.382,75.427 107.122,73.485C107.862,71.512 108.941,69.754 110.359,68.213C111.777,66.671 113.504,65.422 115.539,64.467C117.573,63.511 119.886,63.033 122.475,63.033C125.559,63.033 128.225,63.696 130.476,65.022C132.758,66.347 134.453,68.074 135.563,70.201L129.736,74.271C129.366,73.408 128.888,72.699 128.303,72.144C127.748,71.558 127.131,71.095 126.453,70.756C125.774,70.386 125.081,70.14 124.372,70.016C123.662,69.862 122.969,69.785 122.291,69.785C120.841,69.785 119.577,70.078 118.498,70.664C117.419,71.25 116.525,72.005 115.816,72.93C115.107,73.855 114.583,74.903 114.244,76.075C113.904,77.246 113.735,78.433 113.735,79.636C113.735,80.93 113.935,82.179 114.336,83.381C114.737,84.584 115.307,85.648 116.047,86.572C116.818,87.497 117.728,88.237 118.776,88.792C119.855,89.316 121.057,89.579 122.383,89.579C123.061,89.579 123.755,89.501 124.464,89.347C125.204,89.162 125.898,88.9 126.545,88.561C127.223,88.191 127.84,87.729 128.395,87.174C128.95,86.588 129.397,85.879 129.736,85.046L135.933,88.7C135.44,89.902 134.7,90.981 133.713,91.937C132.758,92.893 131.648,93.694 130.384,94.342C129.12,94.989 127.778,95.483 126.36,95.822C124.942,96.161 123.555,96.33 122.198,96.33C119.824,96.33 117.635,95.853 115.631,94.897C113.658,93.91 111.947,92.615 110.498,91.012C109.079,89.409 107.97,87.59 107.168,85.555C106.397,83.52 106.012,81.455 106.012,79.358Z" style="fill:white;fill-opacity:0.443137;fill-rule:nonzero;"/>
        <path id="path5544" d="M93.133,87.914C93.133,89.332 92.84,90.565 92.254,91.613C91.668,92.662 90.866,93.54 89.849,94.249C88.832,94.928 87.645,95.452 86.288,95.822C84.931,96.161 83.498,96.33 81.987,96.33L65.986,96.33L65.986,63.495L84.253,63.495C85.394,63.495 86.427,63.742 87.352,64.235C88.277,64.729 89.063,65.376 89.71,66.178C90.358,66.949 90.851,67.843 91.19,68.86C91.56,69.847 91.745,70.864 91.745,71.912C91.745,73.485 91.344,74.965 90.543,76.352C89.772,77.739 88.6,78.788 87.028,79.497C88.909,80.052 90.389,81.038 91.468,82.457C92.578,83.875 93.133,85.694 93.133,87.914ZM85.409,86.388C85.409,85.37 85.116,84.507 84.531,83.798C83.945,83.089 83.205,82.734 82.311,82.734L73.57,82.734L73.57,89.902L81.987,89.902C82.974,89.902 83.791,89.578 84.438,88.931C85.086,88.284 85.409,87.436 85.409,86.388ZM73.57,69.97L73.57,76.768L81.016,76.768C81.848,76.768 82.588,76.491 83.236,75.936C83.883,75.381 84.207,74.518 84.207,73.346C84.207,72.267 83.914,71.434 83.328,70.849C82.773,70.263 82.095,69.97 81.293,69.97L73.57,69.97Z" style="fill:white;fill-opacity:0.443137;fill-rule:nonzero;"/>
    </g>
</svg>
